<svg height='100px' width='100px'  fill="#000000" xmlns="http://www.w3.org/2000/svg" xmlns:xlink="http://www.w3.org/1999/xlink" version="1.1" x="0px" y="0px" viewBox="0 0 48 48" style="enable-background:new 0 0 48 48;" xml:space="preserve"><g><path d="M24,3C12.42,3,3,12.42,3,24c0,6.67,3.06,12.79,8.4,16.8C15.06,43.55,19.41,45,24,45c1.15,0,2.28-0.09,3.39-0.27   c3.33-0.54,6.47-1.87,9.21-3.93C41.94,36.79,45,30.67,45,24C45,12.42,35.58,3,24,3z M34.53,39.8c-0.2,0.13-0.39,0.26-0.59,0.39   c-0.23,0.14-0.47,0.27-0.7,0.4c-0.2,0.11-0.4,0.23-0.6,0.33c-0.24,0.13-0.49,0.24-0.74,0.35c-0.2,0.09-0.4,0.19-0.61,0.28   c-0.26,0.11-0.52,0.2-0.78,0.3c-0.2,0.07-0.41,0.15-0.61,0.22c-0.27,0.09-0.55,0.16-0.83,0.24c-0.2,0.06-0.4,0.12-0.6,0.17   c-0.29,0.07-0.59,0.12-0.89,0.18c-0.19,0.04-0.38,0.08-0.58,0.11c-0.33,0.05-0.67,0.09-1,0.12c-0.16,0.02-0.33,0.04-0.49,0.06   C25.01,42.98,24.51,43,24,43s-1.01-0.02-1.52-0.06c-0.16-0.01-0.33-0.04-0.49-0.06c-0.33-0.03-0.67-0.07-1-0.12   c-0.19-0.03-0.38-0.08-0.58-0.11c-0.3-0.06-0.59-0.11-0.89-0.18c-0.2-0.05-0.4-0.11-0.6-0.17c-0.28-0.08-0.56-0.15-0.83-0.24   c-0.2-0.07-0.4-0.15-0.61-0.22c-0.26-0.1-0.53-0.19-0.79-0.3c-0.2-0.08-0.4-0.18-0.6-0.27c-0.25-0.12-0.5-0.23-0.75-0.36   c-0.2-0.1-0.39-0.21-0.59-0.32c-0.24-0.13-0.48-0.27-0.71-0.41c-0.19-0.12-0.39-0.25-0.58-0.38c-0.16-0.1-0.31-0.21-0.46-0.32   C13.28,33.66,18.11,29,24,29c2.94,0,5.71,1.14,7.78,3.22c1.95,1.95,3.08,4.52,3.2,7.27C34.84,39.59,34.69,39.7,34.53,39.8z    M36.83,38c-0.42-2.72-1.66-5.22-3.64-7.2C30.74,28.35,27.48,27,24,27c-6.49,0-11.87,4.78-12.83,11.01C7.23,34.41,5,29.41,5,24   C5,13.52,13.52,5,24,5s19,8.52,19,19C43,29.4,40.77,34.41,36.83,38z"></path><path d="M33,18c0-4.96-4.04-9-9-9s-9,4.04-9,9s4.04,9,9,9S33,22.96,33,18z M24,25c-3.86,0-7-3.14-7-7s3.14-7,7-7s7,3.14,7,7   S27.86,25,24,25z"></path></g></svg>