<svg height='100px' width='100px'  fill="#000000" xmlns="http://www.w3.org/2000/svg" xmlns:xlink="http://www.w3.org/1999/xlink" version="1.1" x="0px" y="0px" viewBox="0 0 48 48" enable-background="new 0 0 48 48" xml:space="preserve"><g><path d="M24,13c-6.1,0-11,4.9-11,11s4.9,11,11,11s11-4.9,11-11S30.1,13,24,13z M24,33c-5,0-9-4-9-9s4-9,9-9s9,4,9,9S29,33,24,33z"></path><path d="M47.2,19.5l-5.6-1.2c-0.3-1-0.7-1.9-1.2-2.8l3.1-4.8c0.3-0.4,0.2-0.9-0.1-1.3l-5-5c-0.3-0.3-0.9-0.4-1.3-0.1l-4.8,3.1   c-0.9-0.5-1.9-0.9-2.8-1.2l-1.2-5.6C28.4,0.3,28,0,27.5,0h-7c-0.5,0-0.9,0.3-1,0.8l-1.2,5.6c-1,0.3-1.9,0.7-2.8,1.2l-4.8-3.1   c-0.4-0.3-0.9-0.2-1.3,0.1l-5,5c-0.3,0.3-0.4,0.9-0.1,1.3l3.1,4.8c-0.5,0.9-0.9,1.9-1.2,2.8l-5.6,1.2C0.3,19.6,0,20,0,20.5v7   c0,0.5,0.3,0.9,0.8,1l5.6,1.2c0.3,1,0.7,1.9,1.2,2.8l-3.1,4.8c-0.3,0.4-0.2,0.9,0.1,1.3l5,5c0.3,0.3,0.9,0.4,1.3,0.1l4.8-3.1   c0.9,0.5,1.9,0.9,2.8,1.2l1.2,5.6c0.1,0.5,0.5,0.8,1,0.8h7c0.5,0,0.9-0.3,1-0.8l1.2-5.6c1-0.3,1.9-0.7,2.8-1.2l4.8,3.1   c0.4,0.3,0.9,0.2,1.3-0.1l5-5c0.3-0.3,0.4-0.9,0.1-1.3l-3.1-4.8c0.5-0.9,0.9-1.9,1.2-2.8l5.6-1.2c0.5-0.1,0.8-0.5,0.8-1v-7   C48,20,47.7,19.6,47.2,19.5z M46,26.7l-5.4,1.1c-0.4,0.1-0.7,0.3-0.8,0.7c-0.4,1.2-0.8,2.4-1.5,3.5c-0.2,0.3-0.2,0.7,0,1l3,4.6   l-3.8,3.8l-4.6-3c-0.3-0.2-0.7-0.2-1,0c-1.1,0.6-2.3,1.1-3.5,1.5c-0.4,0.1-0.6,0.4-0.7,0.8L26.7,46h-5.4l-1.1-5.4   c-0.1-0.4-0.3-0.7-0.7-0.8c-1.2-0.4-2.4-0.8-3.5-1.5c-0.3-0.2-0.7-0.2-1,0l-4.6,3l-3.8-3.8l3-4.6c0.2-0.3,0.2-0.7,0-1   c-0.6-1.1-1.1-2.3-1.5-3.5c-0.1-0.4-0.4-0.6-0.8-0.7L2,26.7v-5.4l5.4-1.1c0.4-0.1,0.7-0.3,0.8-0.7C8.5,18.2,9,17.1,9.6,16   c0.2-0.3,0.2-0.7,0-1l-3-4.6l3.8-3.8l4.6,3c0.3,0.2,0.7,0.2,1,0c1.1-0.6,2.3-1.1,3.5-1.5c0.4-0.1,0.6-0.4,0.7-0.8L21.3,2h5.4   l1.1,5.4c0.1,0.4,0.3,0.7,0.7,0.8C29.8,8.5,30.9,9,32,9.6c0.3,0.2,0.7,0.2,1,0l4.6-3l3.8,3.8l-3,4.6c-0.2,0.3-0.2,0.7,0,1   c0.6,1.1,1.1,2.3,1.5,3.5c0.1,0.4,0.4,0.6,0.8,0.7l5.4,1.1V26.7z"></path></g></svg>