<svg height='100px' width='100px'  fill="#000000" xmlns="http://www.w3.org/2000/svg" xmlns:xlink="http://www.w3.org/1999/xlink" version="1.1" x="0px" y="0px" viewBox="0 0 500 500" enable-background="new 0 0 500 500" xml:space="preserve"><g><g><g><path d="M141.9,285.3c0-21.5,0-43.1,0-64.6c0-7.1,0.2-16.2,8.5-16.7c6-0.4,12.1,0,18,0c26.2,0,52.4,0,78.6,0     c18.9,0,37.9,0.6,56.8,0c9.3-0.3,17-5.6,20.3-14.4c2-5.3,1.5-11.2,1.5-16.8c0-12.1,0-24.3,0-36.4c-5,2.9-10,5.8-15,8.6     c19.4,11.9,38.7,23.7,58.1,35.6c29.7,18.2,59.3,36.4,89,54.5c4.1,2.5,8.1,5,12.2,7.5c1.5,0.9,3.9,2.3,4.6,3     c2.4,2.7,1.4,6.6-1.6,8.7c-2.8,1.9-5.7,3.5-8.5,5.3c-28,17.4-55.9,34.8-83.9,52.2c-14.7,9.1-29.4,18.3-44.1,27.4     c-8.1,5-16.6,9.7-24.5,15.2c-0.4,0.3-0.8,0.5-1.2,0.7c5,2.9,10,5.8,15,8.6c0-14.9,0.5-29.9,0-44.8c-0.4-12.7-9.2-22.6-22.1-22.8     c-4.4-0.1-8.8,0-13.3,0c-39,0-77.9,0-116.9,0c-6.7,0-13.4,0-20.2,0c-1.1,0-2.2,0.1-3.2,0C145.1,295.7,142.1,290.7,141.9,285.3     c-0.4-12.8-20.4-12.9-20,0c0.5,16.1,11.5,30.2,28.2,30.7c3.5,0.1,6.9,0,10.4,0c17.8,0,35.5,0,53.3,0c20.6,0,41.3,0,61.9,0     c7.1,0,14.2,0,21.3,0c1.6,0,6.5-0.5,7.4-0.1c1.8,0.9,1.2,4.6,1.2,6.5c0,5.3,0,10.5,0,15.8c0,8.5,0,17,0,25.4     c0,7.4,8.5,12.7,15,8.6c20.2-12.6,40.4-25.1,60.7-37.7c29.8-18.5,59.6-37,89.4-55.6c7.7-4.8,18-9.5,22.1-17.9     c5.8-12,2-26.2-9.1-33.5c-2.1-1.4-4.3-2.7-6.5-4c-27.8-17-55.6-34.1-83.5-51.1c-23.9-14.7-47.5-30-71.8-44     c-0.4-0.3-0.9-0.5-1.3-0.8c-6.5-4-15,1.2-15,8.6c0,10.6,0,21.1,0,31.7c0,4.3,0.4,8.8,0,13.1c-0.2,2.4-0.4,2.7-2.1,2.9     c-6.4,1-13.8,0-20.2,0c-12.4,0-24.8,0-37.2,0c-26.1,0-52.2,0-78.3,0c-5.8,0-11.7-0.2-17.6,0c-17.6,0.5-28.2,15.6-28.3,32.2     c-0.2,23.1,0,46.1,0,69.2C121.9,298.2,141.9,298.2,141.9,285.3z"></path></g></g><g><g><path d="M299,32.3c-23.3,0-46.6,0-69.9,0c-39.7,0-79.4,0-119,0c-11.6,0-23.1,0-34.7,0c-19.8,0-37.8,7.7-48.9,24.7     c-7,10.9-8.3,23-8.3,35.5c0,10.6,0,21.1,0,31.7c0,36.8,0,73.6,0,110.3c0,39.6,0,79.2,0,118.8c0,20.2-0.2,40.4,0,60.6     c0.3,27.4,20.5,50.2,47.8,53.4c7.7,0.9,15.8,0.4,23.5,0.4c36.6,0,73.1,0,109.7,0c31.5,0,63,0,94.6,0c1.8,0,3.5,0,5.3,0     c12.9,0,12.9-20,0-20c-22.7,0-45.4,0-68,0c-39,0-78,0-117,0c-12.2,0-24.5,0-36.7,0c-1.9,0-3.8,0-5.8,0     c-11.6-0.1-22.4-6-28.4-15.9c-4.9-8.1-4.9-16.4-4.9-25.4c0-10.7,0-21.5,0-32.2c0-36.4,0-72.8,0-109.1c0-38.9,0-77.8,0-116.7     c0-20.6-0.1-41.2,0-61.8c0.1-18.7,14.4-33.9,33.3-34.1c7-0.1,13.9,0,20.9,0c36.6,0,73.2,0,109.7,0c30.6,0,61.3,0,91.9,0     c1.6,0,3.3,0,4.9,0C311.9,52.3,311.9,32.3,299,32.3L299,32.3z"></path></g></g></g></svg>