<svg height='100px' width='100px'  fill="#000000" xmlns:dc="http://purl.org/dc/elements/1.1/" xmlns:cc="http://creativecommons.org/ns#" xmlns:rdf="http://www.w3.org/1999/02/22-rdf-syntax-ns#" xmlns:svg="http://www.w3.org/2000/svg" xmlns="http://www.w3.org/2000/svg" xmlns:sodipodi="http://sodipodi.sourceforge.net/DTD/sodipodi-0.dtd" xmlns:inkscape="http://www.inkscape.org/namespaces/inkscape" version="1.1" x="0px" y="0px" viewBox="0 0 100 100"><g transform="translate(0,-952.36218)"><path style="text-indent:0;text-transform:none;direction:ltr;block-progression:tb;baseline-shift:baseline;color:#000000;enable-background:accumulate;" d="m 49.656301,958.36397 c -24.2419,0 -43.6563,19.88893 -43.6563,44.00003 0,24.2717 19.557,43.9999 43.6563,43.9999 l 0.6875,0 c 24.0897,0 43.656198,-19.7282 43.656198,-43.9999 0,-23.85881 -19.180798,-44.00003 -43.656198,-44.00003 -0.086,0 -0.2035,-0.006 -0.3438,0 -0.151,-0.008 -0.2625,0 -0.3437,0 z m -2.0625,4.03125 c 0.134,-0.007 0.2719,0.006 0.4062,0 l 0,4.6875 a 2.000005,2.000005 0 1 0 4,0 l 0,-4.6875 c 5.8411,0.24078 11.314,1.73682 16.1876,4.21875 l -2.4063,4.1875 a 2.0019915,2.0019915 0 1 0 3.4687,2 l 2.4063,-4.1875 c 4.7803,3.08469 8.8315,7.1652 11.9063,11.9375 l -4.2188,2.4375 a 2.0098507,2.0098507 0 1 0 2.0312,3.46875 l 4.1876,-2.46875 c 2.5497,4.97117 4.0875,10.52844 4.375,16.37503 l -4.875,0 a 2.000005,2.000005 0 1 0 0,4 l 4.875,0 c -0.286,5.881 -1.8132,11.4038 -4.3438,16.3437 l -4.2188,-2.4375 a 2.000005,2.000005 0 0 0 -0.9687,-0.2813 2.000005,2.000005 0 0 0 -1.0625,3.75 l 4.2188,2.4375 c -3.0843,4.7743 -7.144,8.8391 -11.9063,11.9063 l -2.4063,-4.1563 a 2.000005,2.000005 0 0 0 -1.8124,-1.0312 2.000005,2.000005 0 0 0 -1.6563,3 l 2.4063,4.1875 c -4.8983,2.4917 -10.3819,3.9772 -16.1876,4.2187 l 0,-4.6562 a 2.000005,2.000005 0 0 0 -2.0312,-2.0313 2.000005,2.000005 0 0 0 -1.9688,2.0313 l 0,4.6562 c -5.8176,-0.2382 -11.3121,-1.7234 -16.2187,-4.2187 l 2.4063,-4.1563 a 2.000005,2.000005 0 0 0 -1.7188,-3.0312 2.000005,2.000005 0 0 0 -1.75,1.0312 l -2.4062,4.1563 c -4.7634,-3.0672 -8.8218,-7.132 -11.9063,-11.9063 l 4.2187,-2.4375 a 2.000005,2.000005 0 0 0 -0.9062,-3.75 2.000005,2.000005 0 0 0 -1.0938,0.2813 l -4.2187,2.4375 c -2.5308,-4.9399 -4.0891,-10.4627 -4.375,-16.3437 l 4.9063,0 a 2.000005,2.000005 0 1 0 0,-4 l -4.9063,0 c 0.285,-5.86792 1.8374,-11.42242 4.375,-16.37503 l 4.2187,2.46875 a 2.0020131,2.0020131 0 1 0 2,-3.46875 l -4.2187,-2.46875 c 3.08,-4.76443 7.1427,-8.83663 11.9063,-11.90625 l 2.4062,4.1875 a 2.0020348,2.0020348 0 1 0 3.4688,-2 l -2.4063,-4.15625 c 4.7848,-2.43709 10.1307,-3.95942 15.8125,-4.25 z" fill="#000000" fill-opacity="1" fill-rule="evenodd" stroke="none" marker="none" visibility="visible" display="inline" overflow="visible"></path><path style="text-indent:0;text-transform:none;direction:ltr;block-progression:tb;baseline-shift:baseline;color:#000000;enable-background:accumulate;" d="m 50.000001,994.05147 c -2.8128,0 -5.125,2.34356 -5.125,5.15625 0,2.11138 1.3091,3.96768 3.1563,4.74998 l 0,25.4687 a 1.9897924,1.9962138 0 1 0 3.9687,0 l 0,-25.4999 c 0.1373,-0.059 0.2754,-0.1173 0.4063,-0.1875 l 11.875,9.5312 a 1.997054,2.0034988 0 1 0 2.5,-3.125 l -11.875,-9.5312 c 0.1286,-0.4482 0.2187,-0.91997 0.2187,-1.40628 0,-2.81269 -2.3083,-5.15625 -5.125,-5.15625 z m 0,4 c 0.6435,0 1.125,0.48894 1.125,1.15625 0,0.27158 -0.085,0.51144 -0.25,0.71875 a 2.000005,2.000005 0 0 0 -0.031,0 c -0.2056,0.25963 -0.4733,0.43753 -0.8438,0.43753 a 1.9897924,1.9962138 0 0 0 -0.031,0 c -0.6271,0 -1.0938,-0.49746 -1.0938,-1.15628 0,-0.66731 0.498,-1.15625 1.125,-1.15625 z" fill="#000000" fill-opacity="1" fill-rule="evenodd" stroke="none" marker="none" visibility="visible" display="inline" overflow="visible"></path></g></svg>