<svg height='100px' width='100px'  fill="#000000" xmlns="http://www.w3.org/2000/svg" xmlns:xlink="http://www.w3.org/1999/xlink" version="1.1" x="0px" y="0px" viewBox="0 0 48 48" style="enable-background:new 0 0 48 48;" xml:space="preserve"><path d="M39.5,23.17c0-0.06,0-0.11,0-0.17c0-4-3.35-7.25-7.44-6.99C30.56,12.94,27.47,11,24,11s-6.56,1.94-8.06,5.01  C11.85,15.74,8.5,19,8.5,23c0,0.06,0,0.11,0,0.17C5.35,23.86,3,26.68,3,30c0,3.86,3.14,7,7,7h28c3.86,0,7-3.14,7-7  C45,26.68,42.65,23.86,39.5,23.17z M38,35H10c-2.76,0-5-2.24-5-5c0-2.62,2.05-4.81,4.66-4.98c0.28-0.02,0.54-0.16,0.72-0.38  c0.17-0.22,0.25-0.51,0.2-0.79c-0.05-0.31-0.08-0.59-0.08-0.85c0-2.76,2.24-5,5-5c0.28,0,0.56,0.03,0.88,0.08  c0.47,0.08,0.93-0.18,1.11-0.62C18.54,14.75,21.1,13,24,13s5.46,1.75,6.52,4.46c0.17,0.44,0.64,0.7,1.11,0.62  c0.31-0.06,0.6-0.08,0.88-0.08c2.76,0,5,2.24,5,5c0,0.26-0.03,0.54-0.08,0.85c-0.05,0.28,0.02,0.57,0.2,0.79  c0.18,0.22,0.44,0.36,0.72,0.38C40.95,25.19,43,27.38,43,30C43,32.76,40.76,35,38,35z"></path></svg>