<svg height='100px' width='100px'  fill="#000000" xmlns="http://www.w3.org/2000/svg" xmlns:xlink="http://www.w3.org/1999/xlink" version="1.1" x="0px" y="0px" viewBox="0 0 100 100" style="enable-background:new 0 0 100 100;" xml:space="preserve"><g><polygon points="32.4,10.1 32.4,11.7 66.9,31.6 66.9,87.1 68.3,87.9 68.3,30.8  "></polygon><path d="M31.7,74.1l26.9,15.5l0.4-0.2v0l5.8-2.9l0.2-0.1V32.6L31.7,13.3V74.1z M59,87.2l-0.1-3.9l3.7,2.2L59,87.2z M33.1,15.7   l30.5,17.6v51.1l-6.3-3.6l0.2,6.6L33.1,73.3V15.7z"></path><path d="M41.7,48.4c-0.4-0.2-0.7,0-0.7,0.4v5.8c0,0.4,0.3,1,0.7,1.2c0.4,0.2,0.7,0,0.7-0.4v-5.8C42.4,49.1,42.1,48.6,41.7,48.4z"></path><path d="M45.1,47.4c-0.4-0.2-0.7,0-0.7,0.4v11.6c0,0.4,0.3,1,0.7,1.2c0.4,0.2,0.7,0,0.7-0.4V48.6C45.8,48.1,45.4,47.6,45.1,47.4z"></path><path d="M48.3,44.9c-0.4-0.2-0.7-0.1-0.7,0.4v20.4c0,0.4,0.3,1,0.7,1.2c0.4,0.2,0.7,0,0.7-0.4V46.1C48.9,45.6,48.6,45.1,48.3,44.9z   "></path><path d="M52.1,51.5c-0.4-0.2-0.7,0-0.7,0.4v11.6c0,0.4,0.3,1,0.7,1.2c0.4,0.2,0.7,0,0.7-0.4V52.6C52.8,52.2,52.5,51.7,52.1,51.5z"></path><path d="M55.2,56.1c-0.4-0.2-0.7,0-0.7,0.4v5.8c0,0.4,0.3,1,0.7,1.2s0.7,0,0.7-0.4v-5.8C55.8,56.9,55.5,56.3,55.2,56.1z"></path></g></svg>