<svg height='100px' width='100px'  fill="#000000" xmlns="http://www.w3.org/2000/svg" data-name="Layer 1" viewBox="0 0 64 64" x="0px" y="0px"><title>Schema- Algorithm- data- structured-plan</title><rect x="6" y="6" width="4" height="2"></rect><rect x="12" y="10" width="4" height="2"></rect><path d="M61,2H43a1,1,0,0,0-1,1V16.673l-7.309,9.972a5.936,5.936,0,0,0-5.382,0L22,16.673V3a1,1,0,0,0-1-1H3A1,1,0,0,0,2,3V17a1,1,0,0,0,1,1H20.493l7.2,9.828a5.977,5.977,0,0,0,0,8.344L20.493,46H3a1,1,0,0,0-1,1V61a1,1,0,0,0,1,1H21a1,1,0,0,0,1-1V47.327l7.309-9.972a5.936,5.936,0,0,0,5.382,0L42,47.327V61a1,1,0,0,0,1,1H61a1,1,0,0,0,1-1V47a1,1,0,0,0-1-1H43.507l-7.2-9.828a5.977,5.977,0,0,0,0-8.344L43.507,18H61a1,1,0,0,0,1-1V3A1,1,0,0,0,61,2ZM20,16H4V4H20Zm0,44H4V48H20Zm8-28a4,4,0,1,1,4,4A4,4,0,0,1,28,32ZM44,48H60V60H44ZM60,16H44V4H60Z"></path><rect x="46" y="6" width="4" height="2"></rect><rect x="52" y="10" width="4" height="2"></rect><rect x="6" y="50" width="4" height="2"></rect><rect x="12" y="54" width="4" height="2"></rect><rect x="46" y="50" width="4" height="2"></rect><rect x="52" y="54" width="4" height="2"></rect></svg>