<svg height='100px' width='100px'  fill="#000000" xmlns="http://www.w3.org/2000/svg" data-name="SOLID BLACK" viewBox="0 0 32 32" x="0px" y="0px"><title>map, navigation, location, destination, direction_1</title><path d="M20,4.8v20a1,1,0,0,1-.63.93l-6,2.4A1,1,0,0,1,12,27.2V7.2a1,1,0,0,1,.63-.93l6-2.4A1,1,0,0,1,20,4.8ZM10,7.11a1,1,0,0,0-.59-.91l-7-3.11A1,1,0,0,0,1,4V24a1,1,0,0,0,.59.91l7,3.12A1,1,0,0,0,10,27.11Zm20.41,0L23.41,4A1,1,0,0,0,22,4.89v20a1,1,0,0,0,.59.91l7,3.11A1,1,0,0,0,30,29a1,1,0,0,0,.54-.16A1,1,0,0,0,31,28V8A1,1,0,0,0,30.41,7.09Z"></path></svg>