<svg height='100px' width='100px'  fill="#000000" xmlns="http://www.w3.org/2000/svg" viewBox="0 0 96 96" x="0px" y="0px"><title>neural network</title><g><path d="M86.53,77.6l4.94-36.2a7.72,7.72,0,0,0-6.23-12.29,7.76,7.76,0,0,0-4.15,1.22L55.43,13.18a7.52,7.52,0,0,0,.3-2.08,7.73,7.73,0,1,0-15.46,0,7.58,7.58,0,0,0,.31,2.14L16.1,32.07a7.72,7.72,0,1,0-5.64,13.38L24.54,58.53l-10.43,19A7.62,7.62,0,0,0,11.28,77a7.73,7.73,0,1,0,7.46,9.69H47.19A7.72,7.72,0,0,0,62.45,85a7.31,7.31,0,0,0-.21-1.76L72.51,66.41,79,80.87a7.65,7.65,0,0,0-1.36,4.37,7.73,7.73,0,1,0,8.86-7.64ZM91,36.84a5.73,5.73,0,1,1-5.73-5.73A5.74,5.74,0,0,1,91,36.84Zm-7.39,7.54L72.77,62.13,66.66,48.59l13.08-6.34A7.7,7.7,0,0,0,83.58,44.38Zm-4.07-12.7a7.7,7.7,0,0,0-1,8.94L65.84,46.76,52.56,17.32a7.88,7.88,0,0,0,2.07-2.27ZM57,51.05a7.72,7.72,0,0,0-14.87-1l-8.57-3.74L48.61,18.79a7.6,7.6,0,0,0,2.19-.5L64,47.63ZM49.7,79.17l-22.65-21,5.51-10.06,9.14,4c0,.18,0,.35,0,.53A7.73,7.73,0,0,0,49.4,60.3a7.59,7.59,0,0,0,1.07-.08l2.68,17.24A7.85,7.85,0,0,0,49.7,79.17ZM49.4,58.3a5.73,5.73,0,1,1,5.72-5.72A5.73,5.73,0,0,1,49.4,58.3ZM48,5.37a5.73,5.73,0,1,1-5.73,5.73A5.74,5.74,0,0,1,48,5.37ZM46.4,18.65,31.69,45.5,18.35,39.68a7.68,7.68,0,0,0-1-6.08l24-18.48A7.72,7.72,0,0,0,46.4,18.65ZM5.15,37.74a5.73,5.73,0,1,1,5.73,5.73A5.73,5.73,0,0,1,5.15,37.74Zm7.93,7.41a7.8,7.8,0,0,0,4.52-3.61l13.12,5.72-5.18,9.46Zm13,14.79L48.36,80.66a7.64,7.64,0,0,0-1.34,4H19a7.71,7.71,0,0,0-3.14-6.17ZM11.28,90.47A5.73,5.73,0,1,1,17,84.74,5.74,5.74,0,0,1,11.28,90.47Zm43.45.28A5.73,5.73,0,1,1,60.45,85,5.73,5.73,0,0,1,54.73,90.75ZM61.3,81a7.73,7.73,0,0,0-6.15-3.66L52.41,59.69a7.74,7.74,0,0,0,4.68-6.47l7.77-3.76L71.51,64.2ZM85.82,44.54a7.58,7.58,0,0,0,3.34-1L84.52,77.56a7.75,7.75,0,0,0-4,1.71L73.77,64.34ZM85.4,91a5.73,5.73,0,1,1,5.72-5.72A5.73,5.73,0,0,1,85.4,91Z"></path></g></svg>