<svg height='100px' width='100px'  fill="#000000" xmlns="http://www.w3.org/2000/svg" xmlns:xlink="http://www.w3.org/1999/xlink" version="1.1" x="0px" y="0px" viewBox="0 0 24 24" style="enable-background:new 0 0 24 24;" xml:space="preserve"><style type="text/css">
	.st0{fill:none;stroke:#000000;stroke-width:2;stroke-miterlimit:10;}
</style><path d="M7,4h3v1H7V4z M17,4v1h3V4H17z M12,5h3V4h-3V5z M7,10h3V7H7V10z M17,7v3h3V7H17z M12,10h3V7h-3V10z M4,7v3h1V7H4z M7,15h3  v-3H7V15z M17,12v3h3v-3H17z M12,15h3v-3h-3V15z M4,12v3h1v-3H4z M7,20h3v-3H7V20z M17,17v3h3v-3H17z M12,20h3v-3h-3V20z M4,17v3h1  v-3H4z"></path></svg>