<svg height='100px' width='100px'  fill="#000000" xmlns="http://www.w3.org/2000/svg" xmlns:xlink="http://www.w3.org/1999/xlink" version="1.1" x="0px" y="0px" viewBox="0 0 60 60" style="enable-background:new 0 0 60 60;" xml:space="preserve"><path d="M40.1554565,6c-4.411438,0-8.3383179,2.0809326-10.8755493,5.3046875H12.0421753  c-3.3320313,0-6.0419922,2.7109375-6.0419922,6.0429688V48.375h0.017334  c0.0783081,1.3699951,0.6106567,2.6552124,1.5539551,3.6845703C8.7023315,53.2929688,10.3097534,54,11.982605,54h24.5634766  l0.5751953-0.0224609l0.6025391-0.9404297l-0.2109375-0.4970703c-1.3984375-3.3007813-1.4091797-6.2392578-0.0341797-8.9833984  l0.2480469-0.5488281l-0.1054688-0.1634521v-9.3970337c0.8228149,0.1530151,1.6676636,0.243103,2.5341797,0.243103  c7.6337891,0,13.8447266-6.2109375,13.8447266-13.8447266C54.0001831,12.2109375,47.7892456,6,40.1554565,6z M11.982605,52  c-1.1132813,0-2.1835938-0.4707031-2.9365234-1.2919922c-0.7626953-0.8320313-1.1289063-1.9150391-1.0302734-3.0488281  c0.1767578-2.0322266,2.0322266-3.6230469,4.2246094-3.6230469h22.8652344  c-0.3812866,1.0803833-0.5824585,2.1958008-0.6246948,3.3388672H12.8839722v2h21.6920166  c0.1116943,0.8613892,0.3037109,1.7357788,0.5970459,2.625H11.982605z M35.6212769,42.0361328H12.2404175  c-1.6221924,0-3.1190796,0.6081543-4.2402344,1.6014404v-26.289917c0-2.2294922,1.8134766-4.0429688,4.0419922-4.0429688h15.9153442  c-1.0494995,1.9493408-1.6477661,4.1762085-1.6477661,6.5410156c0,6.0443726,3.9001465,11.1832886,9.3115234,13.0667725V42.0361328z   M40.1554565,31.6904297c-6.5322266,0-11.8457031-5.3134766-11.8457031-11.8447266C28.3097534,13.3134766,33.62323,8,40.1554565,8  c6.53125,0,11.8447266,5.3134766,11.8447266,11.8457031C52.0001831,26.3769531,46.6867065,31.6904297,40.1554565,31.6904297z"></path><rect x="16.5460815" y="36.421875" width="10.5292969" height="2"></rect><rect x="16.5460815" y="30.8066406" width="10.5292969" height="2"></rect><path d="M45.4874878,17.5830078c0-2.9404297-2.3925781-5.3320313-5.3330078-5.3320313  c-2.9394531,0-5.3310547,2.3916016-5.3310547,5.3320313v1.6552734h-1.1630859v8.2011719h12.9902344v-8.2011719h-1.1630859  V17.5830078z M36.8234253,17.5830078c0-1.8369141,1.4941406-3.3320313,3.3310547-3.3320313  c1.8378906,0,3.3330078,1.4951172,3.3330078,3.3320313v1.6552734h-6.6640625V17.5830078z M44.6505737,25.4394531h-8.9902344  v-4.2011719h8.9902344V25.4394531z"></path></svg>