<svg height='100px' width='100px'  fill="#000000" xmlns="http://www.w3.org/2000/svg" xmlns:xlink="http://www.w3.org/1999/xlink" version="1.1" x="0px" y="0px" viewBox="0 0 128 128" style="enable-background:new 0 0 128 128;" xml:space="preserve"><g><g><path d="M12.059,53.691C6.513,53.691,2,58.316,2,64s4.513,10.308,10.059,10.308c5.547,0,10.06-4.625,10.06-10.308    S17.606,53.691,12.059,53.691z"></path><path d="M115.941,53.691c-5.547,0-10.06,4.625-10.06,10.308s4.513,10.308,10.06,10.308    C121.487,74.308,126,69.684,126,64S121.487,53.691,115.941,53.691z"></path><g><path d="M94.949,66.291H19.905c-1.223,0-2.214-1.026-2.214-2.291c0-1.265,0.991-2.291,2.214-2.291h75.044     c1.223,0,2.214,1.026,2.214,2.291C97.163,65.265,96.172,66.291,94.949,66.291z"></path><path d="M85.509,76c-0.57,0-1.139-0.226-1.572-0.677c-0.861-0.898-0.856-2.348,0.012-3.24l7.856-8.064     l-7.893-8.102c-0.868-0.891-0.874-2.342-0.012-3.24c0.862-0.898,2.263-0.903,3.132-0.013l9.477,9.728     c0.419,0.43,0.655,1.016,0.655,1.626c0,0.611-0.236,1.196-0.655,1.626l-9.44,9.69C86.637,75.779,86.073,76,85.509,76z"></path></g></g></g></svg>