<svg height='100px' width='100px'  fill="#000000" xmlns="http://www.w3.org/2000/svg" xmlns:xlink="http://www.w3.org/1999/xlink" version="1.1" x="0px" y="0px" viewBox="0 0 60 60" style="enable-background:new 0 0 60 60;" xml:space="preserve"><path d="M40.1549072,6c-4.4111328,0-8.3378906,2.0809326-10.875061,5.3046875H12.0426025  c-3.3320313,0-6.0424805,2.7109375-6.0424805,6.0429688V48.375h0.0174561  c0.0784302,1.3699951,0.6101685,2.6552124,1.5543213,3.6845703C8.7022705,53.2929688,10.3096924,54,11.9820557,54h24.5639648  l0.5791016-0.0224609l0.5961914-0.9443359l-0.2089844-0.4931641c-1.3984375-3.3007813-1.4091797-6.2392578-0.0336914-8.9833984  h-0.0004883l0.2509766-0.5390625l-0.1079102-0.1691895v-9.401001c0.8226929,0.1529541,1.6673584,0.243042,2.5336914,0.243042  c7.6342773,0,13.8452148-6.2109375,13.8452148-13.8447266C54.0001221,12.2109375,47.7891846,6,40.1549072,6z M11.9820557,52  c-1.1132813,0-2.1835938-0.4707031-2.9360352-1.2919922c-0.7631836-0.8320313-1.1289063-1.9150391-1.0302734-3.0488281  c0.1767578-2.0322266,2.0322266-3.6230469,4.2246094-3.6230469h22.8642578  c-0.3808594,1.0802002-0.5818481,2.1954346-0.6239014,3.3388672H12.8843994v2h21.6916504  c0.1117554,0.8609619,0.3037109,1.7352295,0.5969238,2.625H11.9820557z M35.6212158,42.0361328H12.2403564  c-1.6221924,0-3.1190796,0.6081543-4.2402344,1.6014404v-26.289917c0-2.2294922,1.8134766-4.0429688,4.0424805-4.0429688h15.914856  c-1.0494995,1.9493408-1.6477661,4.1762085-1.6477661,6.5410156c0,6.0444336,3.9003906,11.1834106,9.3115234,13.0668335V42.0361328z   M40.1549072,31.6904297c-6.53125,0-11.8452148-5.3134766-11.8452148-11.8447266C28.3096924,13.3134766,33.6236572,8,40.1549072,8  s11.8452148,5.3134766,11.8452148,11.8457031C52.0001221,26.3769531,46.6861572,31.6904297,40.1549072,31.6904297z"></path><rect x="16.5460205" y="36.421875" width="10.5297852" height="2"></rect><rect x="16.5460205" y="30.8066406" width="10.5297852" height="2"></rect><path d="M44.7755127,17.2451172c1.690918,0,3.0664063-1.3759766,3.0664063-3.0664063s-1.3754883-3.0664063-3.0664063-3.0664063  s-3.0664063,1.3759766-3.0664063,3.0664063c0,0.1090698,0.0210571,0.2124023,0.0322266,0.3186035l-5.9298706,2.7827759  c-0.5620117-0.6282959-1.369873-1.0320435-2.2771606-1.0320435c-1.690918,0-3.0664063,1.3759766-3.0664063,3.0664063  s1.3754883,3.0664063,3.0664063,3.0664063c0.8314819,0,1.5844727-0.3352661,2.1374512-0.8744507l6.0935669,3.4500732  c-0.0333862,0.1809692-0.0562134,0.3657837-0.0562134,0.5562134c0,1.6904297,1.3754883,3.0664063,3.0664063,3.0664063  s3.0664063-1.3759766,3.0664063-3.0664063c0-1.6914063-1.3754883-3.0673828-3.0664063-3.0673828  c-0.7755127,0-1.4765625,0.2988281-2.0170898,0.7753906l-6.1974487-3.5089722  c0.0172729-0.1314087,0.0402222-0.2612305,0.0402222-0.3972778c0-0.0639648-0.0150146-0.1238403-0.0189209-0.1868286  l5.9985352-2.8150024C43.1383057,16.8859253,43.9146118,17.2451172,44.7755127,17.2451172z M33.5343018,20.3808594  c-0.5878906,0-1.0664063-0.4785156-1.0664063-1.0664063s0.4785156-1.0664063,1.0664063-1.0664063  c0.5883789,0,1.0668945,0.4785156,1.0668945,1.0664063S34.1226807,20.3808594,33.5343018,20.3808594z M44.7755127,24.4453125  c0.5878906,0,1.0664063,0.4785156,1.0664063,1.0673828c0,0.5878906-0.4785156,1.0664063-1.0664063,1.0664063  s-1.0664063-0.4785156-1.0664063-1.0664063C43.7091064,24.9238281,44.1876221,24.4453125,44.7755127,24.4453125z   M44.7755127,13.1123047c0.5878906,0,1.0664063,0.4785156,1.0664063,1.0664063s-0.4785156,1.0664063-1.0664063,1.0664063  s-1.0664063-0.4785156-1.0664063-1.0664063S44.1876221,13.1123047,44.7755127,13.1123047z"></path></svg>