<svg height='100px' width='100px'  fill="#000000" xmlns="http://www.w3.org/2000/svg" data-name="SOLID BLACK" viewBox="0 0 32 32" x="0px" y="0px"><title>map, navigation, location, lock, direction</title><path d="M10,27.11A1,1,0,0,1,8.59,28l-7-3.12A1,1,0,0,1,1,24V4a1,1,0,0,1,1.41-.91l7,3.11a1,1,0,0,1,.59.91ZM21,12a1,1,0,0,0-1,1v1h2V13A1,1,0,0,0,21,12ZM31,8V28a1,1,0,0,1-.46.84A1,1,0,0,1,30,29a1,1,0,0,1-.41-.09L21,25.08l-7.61,3.05A1,1,0,0,1,12,27.2V7.2a1,1,0,0,1,.63-.93l8-3.2a1,1,0,0,1,.78,0l9,4A1,1,0,0,1,31,8Zm-6,7a1,1,0,0,0-1-1V13a3,3,0,0,0-6,0v1a1,1,0,0,0-1,1v4a1,1,0,0,0,1,1h6a1,1,0,0,0,1-1Z"></path></svg>