<svg height='100px' width='100px'  fill="#000000" xmlns="http://www.w3.org/2000/svg" xmlns:xlink="http://www.w3.org/1999/xlink" version="1.1" x="0px" y="0px" viewBox="0 0 100.006 100.006" enable-background="new 0 0 100.006 100.006" xml:space="preserve"><g><path fill="none" d="M14.685,79.216c0,0.927,0.754,1.681,1.681,1.681c0.927,0,1.681-0.754,1.681-1.681   c0-0.102-0.013-0.201-0.03-0.298c-0.075-0.416-0.304-0.775-0.625-1.024c-0.285-0.221-0.638-0.359-1.026-0.359   C15.439,77.535,14.685,78.289,14.685,79.216z"></path><path fill="none" d="M81.96,79.216c0,0.927,0.754,1.681,1.681,1.681c0.927,0,1.681-0.754,1.681-1.681   c0-0.927-0.754-1.681-1.681-1.681c-0.418,0-0.796,0.159-1.091,0.413c-0.307,0.265-0.515,0.635-0.569,1.058   C81.972,79.075,81.96,79.144,81.96,79.216z"></path><path d="M50.116,58.993v0.344h-1.2v-0.34L18.461,77.252c0.274,0.293,0.482,0.643,0.616,1.03l30.442-18.248L80.9,78.374   c0.121-0.392,0.32-0.747,0.584-1.048L50.116,58.993z"></path><path d="M50.116,58.993V23.618c-0.171,0.032-0.345,0.053-0.525,0.053c-0.234,0-0.457-0.036-0.675-0.088v35.414l0.596-0.357   L50.116,58.993z"></path><polygon points="50.116,59.337 50.116,58.993 49.512,58.64 48.916,58.997 48.916,59.337  "></polygon><polygon points="50.116,59.337 50.116,58.993 49.512,58.64 48.916,58.997 48.916,59.337  "></polygon><path d="M47.91,20.791c0-0.927,0.754-1.681,1.681-1.681c0.927,0,1.681,0.754,1.681,1.681c0,0.742-0.487,1.366-1.156,1.588v1.239   c1.338-0.248,2.356-1.419,2.356-2.828c0-1.589-1.292-2.881-2.881-2.881c-1.588,0-2.881,1.292-2.881,2.881   c0,1.355,0.943,2.487,2.206,2.792v-1.256C48.325,22.067,47.91,21.477,47.91,20.791z"></path><path d="M50.116,23.618v-1.239c-0.166,0.055-0.341,0.092-0.525,0.092c-0.24,0-0.468-0.053-0.675-0.144v1.256   c0.218,0.053,0.441,0.088,0.675,0.088C49.77,23.671,49.945,23.65,50.116,23.618z"></path><path d="M50.116,23.618v-1.239c-0.166,0.055-0.341,0.092-0.525,0.092c-0.24,0-0.468-0.053-0.675-0.144v1.256   c0.218,0.053,0.441,0.088,0.675,0.088C49.77,23.671,49.945,23.65,50.116,23.618z"></path><path d="M83.641,76.335c-0.862,0-1.628,0.388-2.156,0.99l1.065,0.622c0.294-0.254,0.673-0.413,1.091-0.413   c0.927,0,1.681,0.754,1.681,1.681c0,0.927-0.754,1.681-1.681,1.681c-0.927,0-1.681-0.754-1.681-1.681   c0-0.072,0.012-0.141,0.021-0.21L80.9,78.374c-0.083,0.268-0.14,0.547-0.14,0.842c0,1.588,1.292,2.881,2.881,2.881   c1.588,0,2.881-1.292,2.881-2.881C86.521,77.627,85.229,76.335,83.641,76.335z"></path><path d="M82.55,77.948l-1.065-0.622c-0.265,0.301-0.463,0.656-0.584,1.048l1.081,0.632C82.035,78.583,82.243,78.212,82.55,77.948z"></path><path d="M17.391,77.894c0.321,0.25,0.55,0.608,0.625,1.024l1.061-0.636c-0.134-0.387-0.342-0.737-0.616-1.03L17.391,77.894z"></path><path d="M19.077,78.282c-0.134-0.387-0.342-0.737-0.616-1.03c-0.526-0.561-1.268-0.917-2.096-0.917   c-1.588,0-2.881,1.292-2.881,2.881c0,1.588,1.292,2.881,2.881,2.881s2.881-1.292,2.881-2.881   C19.246,78.887,19.179,78.576,19.077,78.282z M16.366,80.896c-0.927,0-1.681-0.754-1.681-1.681c0-0.927,0.754-1.681,1.681-1.681   c0.388,0,0.741,0.137,1.026,0.359c0.321,0.25,0.55,0.608,0.625,1.024c0.017,0.097,0.03,0.196,0.03,0.298   C18.046,80.142,17.292,80.896,16.366,80.896z"></path></g></svg>