<svg height='100px' width='100px'  fill="#000000" xmlns="http://www.w3.org/2000/svg" xmlns:xlink="http://www.w3.org/1999/xlink" version="1.1" x="0px" y="0px" viewBox="0 0 64 64" style="enable-background:new 0 0 64 64;" xml:space="preserve"><path d="M61,2H3C2.447,2,2,2.447,2,3v42c0,0.553,0.447,1,1,1h23.277l-7.145,12.504C19.046,58.655,19,58.826,19,59v3h2v-2.734  L28.58,46H31v16h2V46h2.42L43,59.266V62h2v-3c0-0.174-0.046-0.345-0.132-0.496L37.723,46H57c2.757,0,5-2.243,5-5V3  C62,2.447,61.553,2,61,2z M60,41c0,1.654-1.346,3-3,3H4V4h56V41z"></path><path d="M41.416,18.576l-0.962,5.243c-0.068,0.372,0.079,0.75,0.38,0.979c0.302,0.228,0.704,0.265,1.045,0.1L47,22.381l5.121,2.517  C52.262,24.966,52.412,25,52.562,25c0.214,0,0.427-0.068,0.604-0.202c0.301-0.229,0.448-0.606,0.38-0.979l-0.962-5.243l4.09-3.726  c0.287-0.262,0.396-0.666,0.281-1.037c-0.116-0.37-0.436-0.641-0.82-0.693l-5.709-0.775l-2.542-4.812  c-0.346-0.656-1.422-0.656-1.768,0l-2.542,4.812l-5.709,0.775c-0.385,0.053-0.704,0.323-0.82,0.693  c-0.115,0.371-0.006,0.775,0.281,1.037L41.416,18.576z M44.354,14.258c0.319-0.044,0.599-0.239,0.749-0.524L47,10.142l1.897,3.592  c0.15,0.285,0.43,0.48,0.749,0.524l4.098,0.557l-2.918,2.657c-0.255,0.232-0.372,0.58-0.31,0.92l0.704,3.835l-3.779-1.857  c-0.14-0.068-0.29-0.103-0.441-0.103s-0.302,0.034-0.441,0.103l-3.779,1.857l0.704-3.835c0.062-0.34-0.055-0.688-0.31-0.92  l-2.918-2.657L44.354,14.258z"></path><path d="M17,25.414l7.293,7.293c0.391,0.391,1.023,0.391,1.414,0l13-13l-1.414-1.414L25,30.586l-7.293-7.293  c-0.391-0.391-1.023-0.391-1.414,0l-9,9l1.414,1.414L17,25.414z"></path><rect x="9" y="36" width="2" height="5"></rect><rect x="13" y="32" width="2" height="9"></rect><rect x="17" y="30" width="2" height="11"></rect><rect x="21" y="35" width="2" height="6"></rect><rect x="25" y="36" width="2" height="5"></rect><rect x="29" y="32" width="2" height="9"></rect><rect x="33" y="29" width="2" height="12"></rect><rect x="37" y="25" width="2" height="16"></rect><rect x="41" y="27" width="2" height="14"></rect><rect x="45" y="30" width="2" height="11"></rect><rect x="49" y="28" width="2" height="13"></rect><rect x="53" y="34" width="2" height="7"></rect><rect x="8" y="8" width="9" height="2"></rect><rect x="19" y="8" width="6" height="2"></rect><rect x="8" y="12" width="3" height="2"></rect><rect x="13" y="12" width="12" height="2"></rect><rect x="8" y="16" width="5" height="2"></rect><rect x="15" y="16" width="2" height="2"></rect><rect x="19" y="16" width="2" height="2"></rect><rect x="23" y="16" width="2" height="2"></rect></svg>