<svg height='100px' width='100px'  fill="#000000" xmlns="http://www.w3.org/2000/svg" data-name="Layer 2" viewBox="0 0 100 100" x="0px" y="0px"><title>Artboard 67</title><path d="M26,42.5H6A1.5,1.5,0,0,0,4.5,44V56A1.5,1.5,0,0,0,6,57.5H26A1.5,1.5,0,0,0,27.5,56V44A1.5,1.5,0,0,0,26,42.5Zm-1.5,12H7.5v-9h17ZM60,71.5H48A1.5,1.5,0,0,0,46.5,73V85A1.5,1.5,0,0,0,48,86.5H60A1.5,1.5,0,0,0,61.5,85V73A1.5,1.5,0,0,0,60,71.5Zm-1.5,12h-9v-9h9Zm1.5-41H48A1.5,1.5,0,0,0,46.5,44V56A1.5,1.5,0,0,0,48,57.5H60A1.5,1.5,0,0,0,61.5,56V44A1.5,1.5,0,0,0,60,42.5Zm-1.5,12h-9v-9h9ZM94,57H82a1.5,1.5,0,0,0-1.5,1.5v12A1.5,1.5,0,0,0,82,72H94a1.5,1.5,0,0,0,1.5-1.5v-12A1.5,1.5,0,0,0,94,57ZM92.5,69h-9V60h9ZM94,28H82a1.5,1.5,0,0,0-1.5,1.5v12A1.5,1.5,0,0,0,82,43H94a1.5,1.5,0,0,0,1.5-1.5v-12A1.5,1.5,0,0,0,94,28ZM92.5,40h-9V31h9ZM60,13.5H48A1.5,1.5,0,0,0,46.5,15V27A1.5,1.5,0,0,0,48,28.5H60A1.5,1.5,0,0,0,61.5,27V15A1.5,1.5,0,0,0,60,13.5Zm-1.5,12h-9v-9h9Zm-20-3v26H43a1.5,1.5,0,0,1,0,3H38.5v26H43a1.5,1.5,0,0,1,0,3H37A1.5,1.5,0,0,1,35.5,79V51.5H31a1.5,1.5,0,0,1,0-3h4.5V21A1.5,1.5,0,0,1,37,19.5h6a1.5,1.5,0,0,1,0,3ZM72.5,63H77a1.5,1.5,0,0,1,0,3H71a1.5,1.5,0,0,1-1.5-1.5v-13H65a1.5,1.5,0,0,1,0-3h4.5v-13A1.5,1.5,0,0,1,71,34h6a1.5,1.5,0,0,1,0,3H72.5Z"></path></svg>