<svg height='100px' width='100px'  fill="#000000" xmlns="http://www.w3.org/2000/svg" viewBox="0 0 64 64" x="0px" y="0px"><g data-name="processor-chip-hand-technology-artificial intelligence"><path d="M6,29a3,3,0,1,0,2.817,4H17V31H8.817A2.986,2.986,0,0,0,6,29Z"></path><path d="M21,8.817V12a1,1,0,0,0,.445.832L24,14.535V17h2V14a1,1,0,0,0-.445-.832L23,11.465V8.817a3,3,0,1,0-2,0Z"></path><path d="M31,8.817V17h2V8.817a3,3,0,1,0-2,0Z"></path><path d="M58,39a2.986,2.986,0,0,0-2.817,2H52.535l-1.7-2.555A1,1,0,0,0,50,38H49v2h.465l1.7,2.555A1,1,0,0,0,52,43h3.183A3,3,0,1,0,58,39Z"></path><path d="M58,29a2.986,2.986,0,0,0-2.817,2H47v2h8.183A3,3,0,1,0,58,29Z"></path><path d="M21,42V22a1,1,0,0,1,1-1H42a1,1,0,0,1,1,1V35a2.974,2.974,0,0,1,2,.78V19H19V45H29V43H22A1,1,0,0,1,21,42Z"></path><path d="M47,38a1,1,0,0,0-1,1v6H44V38a1,1,0,0,0-2,0v7H40V38a1,1,0,0,0-2,0v7H36V31a1,1,0,0,0-2,0V45H32V41.41l-1,1v7.26l2.8,3.73a.984.984,0,0,1,.2.6v8H45V55a.984.984,0,0,1,.2-.6L48,50.67V39A1,1,0,0,0,47,38Z"></path><path d="M32,31a3,3,0,0,1,6,0v4.18A3,3,0,0,1,39,35a2.974,2.974,0,0,1,2,.78V23H23V41h6.59L32,38.59Z"></path><path d="M40,14.535l2.555-1.7A1,1,0,0,0,43,12V8.817a3,3,0,1,0-2,0v2.648l-2.555,1.7A1,1,0,0,0,38,14v3h2Z"></path><path d="M24,49.465l-2.555,1.7A1,1,0,0,0,21,52v3.183a3,3,0,1,0,2,0V52.535l2.555-1.7A1,1,0,0,0,26,50V47H24Z"></path><path d="M50.832,25.555,52.535,23h2.648a3,3,0,1,0,0-2H52a1,1,0,0,0-.832.445L49.465,24H47v2h3A1,1,0,0,0,50.832,25.555Z"></path><path d="M13.168,38.445,11.465,41H8.817a3,3,0,1,0,0,2H12a1,1,0,0,0,.832-.445L14.535,40H17V38H14A1,1,0,0,0,13.168,38.445Z"></path><path d="M12.832,21.445A1,1,0,0,0,12,21H8.817a3,3,0,1,0,0,2h2.648l1.7,2.555A1,1,0,0,0,14,26h3V24H14.535Z"></path></g></svg>