<svg height='100px' width='100px'  fill="#000000" xmlns="http://www.w3.org/2000/svg" viewBox="0 0 64 64" x="0px" y="0px"><g><rect x="26" y="6" width="2" height="2"></rect><rect x="30" y="6" width="2" height="2"></rect><rect x="34" y="6" width="2" height="2"></rect><path d="M61,6H42.351L38.177,2.662A3,3,0,0,0,36.3,2H25a3,3,0,0,0-3,3v5H18a1,1,0,0,0-1,1v3H13a1,1,0,0,0-1,1v1H52V41a4.948,4.948,0,0,0,1.026,3H48v2h9a5.006,5.006,0,0,0,5-5V7A1,1,0,0,0,61,6ZM19,14V12H56V40H54V15a1,1,0,0,0-1-1ZM60,41a2.993,2.993,0,0,1-5.816,1H57a1,1,0,0,0,1-1V11a1,1,0,0,0-1-1H24V5a1,1,0,0,1,1-1H36.3a.981.981,0,0,1,.625.222l4.45,3.559A1,1,0,0,0,42,8H60Z"></path><path d="M45,18H3a1,1,0,0,0-1,1V61a1,1,0,0,0,1,1H45a1,1,0,0,0,1-1V19A1,1,0,0,0,45,18ZM31,21.414,34.586,25H31ZM11,60H4V20H29v6a1,1,0,0,0,1,1h6V60Zm27,0V26c0-.022-.011-.041-.013-.063a.945.945,0,0,0-.051-.257c-.011-.032-.019-.063-.033-.094a.984.984,0,0,0-.2-.293L32.414,20H40V60Zm6,0H42V20h2Z"></path><path d="M8,32.618l3-1.5L14.553,32.9a1,1,0,0,0,1.279-.34L19,27.8l3.168,4.752a1,1,0,0,0,1.539.152L27,29.414l3.293,3.293,1.414-1.414-4-4a1,1,0,0,0-1.414,0l-3.138,3.138-3.323-4.986a1.039,1.039,0,0,0-1.664,0l-3.51,5.266-3.211-1.606a1,1,0,0,0-.894,0L8,30.382V26H6V36a1,1,0,0,0,1,1H34V35H8Z"></path><path d="M11,39a5,5,0,1,0,4.159,2.227A5.006,5.006,0,0,0,11,39Zm1,3.132v-.96a2.942,2.942,0,0,1,.8.428ZM11,47a3,3,0,0,1-1-5.829V44a1,1,0,0,0,.528.882.971.971,0,0,0,.246.09c.021,0,.042,0,.064.008A1,1,0,0,0,11,45c.009,0,.017,0,.026,0a.952.952,0,0,0,.159-.023.927.927,0,0,0,.115-.021,1.006,1.006,0,0,0,.255-.12l2.353-1.568A3,3,0,0,1,11,47Z"></path><rect x="6" y="22" width="2" height="2"></rect><rect x="10" y="22" width="2" height="2"></rect><rect x="14" y="22" width="2" height="2"></rect><path d="M26.536,47.535A4.977,4.977,0,0,0,27.9,44.983l0,0a4.991,4.991,0,1,0-1.366,2.556Zm-.567-3.961L24,43.181V41.17a3,3,0,0,1,1.969,2.4ZM20,44a3,3,0,0,1,2-2.83V44a1,1,0,0,0,.8.98l2.773.555a3,3,0,0,1-4.7.586A2.979,2.979,0,0,1,20,44Z"></path><rect x="6" y="51" width="10" height="2"></rect><rect x="6" y="55" width="3" height="2"></rect><rect x="11" y="55" width="5" height="2"></rect><rect x="18" y="51" width="10" height="2"></rect><rect x="18" y="55" width="3" height="2"></rect><rect x="23" y="55" width="5" height="2"></rect><rect x="30" y="39" width="4" height="2"></rect><rect x="30" y="43" width="4" height="2"></rect><rect x="30" y="47" width="4" height="2"></rect></g></svg>