<svg height='100px' width='100px'  fill="#000000" xmlns="http://www.w3.org/2000/svg" xmlns:xlink="http://www.w3.org/1999/xlink" version="1.1" x="0px" y="0px" viewBox="0 0 100 100" enable-background="new 0 0 100 100" xml:space="preserve"><g><path d="M79.878,20.556c-0.182-0.083-0.373-0.11-0.564-0.11v-0.014H36.399c-0.324,0-0.637,0.116-0.883,0.327L19.804,34.276   l0.012,0.012c-0.289,0.248-0.48,0.603-0.48,1.013v42.915c0,0.747,0.604,1.352,1.352,1.352h42.914c0.338,0,0.635-0.136,0.871-0.339   l0.012,0.012l15.713-13.517c0.299-0.256,0.469-0.631,0.469-1.025V21.784C80.665,21.256,80.358,20.775,79.878,20.556z    M77.962,64.023h-13.01V35.922l13.01-11.192V64.023z M76.454,65.375L64.952,75.27v-9.895H76.454z M35.724,64.389L22.038,76.162   v-39.51h13.686V64.389z M37.075,36.652h25.174v27.371H37.075V36.652z M63.099,33.949H37.075V23.136h38.594L63.099,33.949z    M35.724,24.149v9.8H24.331L35.724,24.149z M23.294,76.864l13.355-11.489h25.6v11.489H23.294z"></path></g></svg>