<svg height='100px' width='100px'  fill="#000000" xmlns:dc="http://purl.org/dc/elements/1.1/" xmlns:cc="http://creativecommons.org/ns#" xmlns:rdf="http://www.w3.org/1999/02/22-rdf-syntax-ns#" xmlns:svg="http://www.w3.org/2000/svg" xmlns="http://www.w3.org/2000/svg" xmlns:sodipodi="http://sodipodi.sourceforge.net/DTD/sodipodi-0.dtd" xmlns:inkscape="http://www.inkscape.org/namespaces/inkscape" version="1.1" x="0px" y="0px" viewBox="0 0 100 100"><g transform="translate(0,-952.36218)"><path style="text-indent:0;text-transform:none;direction:ltr;block-progression:tb;baseline-shift:baseline;color:#000000;enable-background:accumulate;" d="m 69.233956,1046.3621 0,-1.1346 0,-7.1617 7.185862,0 1.143992,0 0,-1.1346 0,-7.3392 6.29217,0 1.144027,0 0,-1.1346 0,-68.96057 0,-1.13457 -1.144027,0 -51.945802,0 -1.144028,0 0,1.13457 0,7.33925 -6.256452,0 -1.144028,0 0,1.13457 0,7.1263 -7.221649,0 -1.144028,0 0,1.13456 0,68.99599 0,1.1346 1.144028,0 51.945908,0 z m -2.288019,-2.2692 -49.657889,0 0,-66.72682 6.935634,0 c 14.240728,0 28.481527,0 42.722255,0 0,24.39602 0,44.70732 0,66.72682 z m 8.329854,-8.2963 -6.041835,0 c 0,-19.8549 0,-39.71017 0,-59.56509 l 0,-1.13456 -1.144027,0 c -14.145378,0 -28.290791,0 -42.436204,0 l 0,-5.99174 49.622066,0 z m 7.436161,-8.4738 -5.148142,0 0,-59.35215 0,-1.13457 -1.143992,0 -43.365613,0 0,-6.20469 49.657747,0 z" fill="#000000" fill-opacity="1" fill-rule="evenodd" stroke="none" marker="none" visibility="visible" display="inline" overflow="visible"></path><path style="text-indent:0;text-transform:none;direction:ltr;block-progression:tb;baseline-shift:baseline;color:#000000;enable-background:accumulate;" d="m 60.948323,1011.8715 0,-2.2687 -1.143886,0 -35.388212,0 -1.143885,0 0,2.2687 1.143885,0 35.388212,0 1.143886,0 z" fill="#000000" fill-opacity="1" fill-rule="evenodd" stroke="none" marker="none" visibility="visible" display="inline" overflow="visible"></path><path style="text-indent:0;text-transform:none;direction:ltr;block-progression:tb;baseline-shift:baseline;color:#000000;enable-background:accumulate;" d="m 60.948323,1019.5903 0,-2.2688 -1.143886,0 -35.388212,0 -1.143885,0 0,2.2688 1.143885,0 35.388212,0 1.143886,0 z" fill="#000000" fill-opacity="1" fill-rule="evenodd" stroke="none" marker="none" visibility="visible" display="inline" overflow="visible"></path><path style="text-indent:0;text-transform:none;direction:ltr;block-progression:tb;baseline-shift:baseline;color:#000000;enable-background:accumulate;" d="m 60.948323,1027.3491 0,-2.2688 -1.143886,0 -35.388212,0 -1.143885,0 0,2.2688 1.143885,0 35.388212,0 1.143886,0 z" fill="#000000" fill-opacity="1" fill-rule="evenodd" stroke="none" marker="none" visibility="visible" display="inline" overflow="visible"></path><path style="text-indent:0;text-transform:none;direction:ltr;block-progression:tb;baseline-shift:baseline;color:#000000;enable-background:accumulate;" d="m 60.948323,1035.0678 0,-2.2688 -1.143886,0 -35.388212,0 -1.143885,0 0,2.2688 1.143885,0 35.388212,0 1.143886,0 z" fill="#000000" fill-opacity="1" fill-rule="evenodd" stroke="none" marker="none" visibility="visible" display="inline" overflow="visible"></path><path style="text-indent:0;text-transform:none;direction:ltr;block-progression:tb;baseline-shift:baseline;color:#000000;enable-background:accumulate;" d="m 60.948323,1004.1531 0,-2.2691 -1.143886,0 -35.388212,0 -1.143885,0 0,2.2691 1.143885,0 35.388212,0 1.143886,0 z" fill="#000000" fill-opacity="1" fill-rule="evenodd" stroke="none" marker="none" visibility="visible" display="inline" overflow="visible"></path><path style="text-indent:0;text-transform:none;direction:ltr;block-progression:tb;baseline-shift:baseline;color:#000000;enable-background:accumulate;" d="m 60.948323,996.43439 0,-2.26878 -1.143886,0 -35.388212,0 -1.143885,0 0,2.26878 1.143885,0 35.388212,0 1.143886,0 z" fill="#000000" fill-opacity="1" fill-rule="evenodd" stroke="none" marker="none" visibility="visible" display="inline" overflow="visible"></path><path style="text-indent:0;text-transform:none;direction:ltr;block-progression:tb;baseline-shift:baseline;color:#000000;enable-background:accumulate;" d="m 60.948323,988.71565 0,-2.26878 -1.143886,0 -24.808216,0 -1.143921,0 0,2.26878 1.143921,0 24.808216,0 1.143886,0 z" fill="#000000" fill-opacity="1" fill-rule="evenodd" stroke="none" marker="none" visibility="visible" display="inline" overflow="visible"></path></g></svg>