<svg height='100px' width='100px'  fill="#000000" xmlns="http://www.w3.org/2000/svg" xmlns:xlink="http://www.w3.org/1999/xlink" version="1.1" x="0px" y="0px" viewBox="0 0 64 64" style="enable-background:new 0 0 64 64;" xml:space="preserve"><g><path d="M59.062,16.274c-0.265-0.792-0.582-1.56-0.946-2.293l2.121-3.442l-6.775-6.775L50.02,5.884   c-0.734-0.365-1.501-0.681-2.293-0.946L46.79,1h-9.58l-0.936,3.938c-0.792,0.265-1.56,0.582-2.293,0.946l-3.442-2.121l-6.775,6.775   l2.121,3.442c-0.365,0.734-0.681,1.501-0.946,2.293L21.883,17H6c-2.757,0-5,2.243-5,5v30c0,2.757,2.243,5,5,5h13v4h-4v2h34v-2h-4   v-4h13c2.757,0,5-2.243,5-5V26.79V22v-4.79L59.062,16.274z M43,61H21v-4h22V61z M58,55H6c-1.654,0-3-1.346-3-3v-1h58v1   C61,53.654,59.654,55,58,55z M61,49H3V22c0-1.654,1.346-3,3-3h15v7.79l3.938,0.936c0.265,0.792,0.582,1.56,0.946,2.293   l-2.121,3.442l6.775,6.775l3.442-2.121c0.733,0.365,1.501,0.681,2.293,0.946L37.21,43h9.58l0.936-3.938   c0.792-0.265,1.56-0.582,2.293-0.946l3.442,2.121l6.775-6.775l-2.121-3.442c0.365-0.734,0.681-1.501,0.946-2.293L61,27.265V49z    M61,25.21l-3.513,0.835l-0.166,0.552c-0.314,1.049-0.729,2.056-1.234,2.991l-0.274,0.508l1.891,3.069l-4.54,4.54l-3.069-1.891   l-0.508,0.274c-0.934,0.504-1.94,0.919-2.99,1.234l-0.552,0.166L45.21,41h-6.42l-0.835-3.513l-0.552-0.166   c-1.05-0.315-2.057-0.73-2.99-1.234l-0.508-0.274l-3.069,1.891l-4.54-4.54l1.891-3.069l-0.274-0.508   c-0.504-0.935-0.919-1.941-1.234-2.991l-0.166-0.552L23,25.21v-6.42l3.513-0.835l0.166-0.552c0.314-1.049,0.729-2.056,1.234-2.991   l0.274-0.508l-1.891-3.069l4.54-4.54l3.069,1.891l0.508-0.274c0.935-0.504,1.941-0.919,2.991-1.234l0.552-0.166L38.79,3h6.42   l0.835,3.513l0.552,0.166c1.049,0.314,2.056,0.729,2.991,1.234l0.508,0.274l3.069-1.891l4.54,4.54l-1.891,3.069l0.274,0.508   c0.504,0.935,0.919,1.941,1.234,2.991l0.166,0.552L61,18.79V22V25.21z"></path><path d="M42,8c-7.72,0-14,6.28-14,14s6.28,14,14,14s14-6.28,14-14S49.72,8,42,8z M42,34c-6.617,0-12-5.383-12-12s5.383-12,12-12   s12,5.383,12,12S48.617,34,42,34z"></path><rect x="32" y="21" width="2" height="2"></rect><rect x="36" y="21" width="16" height="2"></rect><rect x="38" y="25" width="12" height="2"></rect><rect x="34" y="25" width="2" height="2"></rect><rect x="38" y="17" width="12" height="2"></rect><rect x="34" y="17" width="2" height="2"></rect><path d="M23,35h-6v6h-2V27H9v14H7V22H5v21h20v-2h-2V35z M19,37h2v4h-2V37z M11,29h2v12h-2V29z"></path></g></svg>