<svg height='100px' width='100px'  fill="#000000" xmlns:dc="http://purl.org/dc/elements/1.1/" xmlns:cc="http://creativecommons.org/ns#" xmlns:rdf="http://www.w3.org/1999/02/22-rdf-syntax-ns#" xmlns:svg="http://www.w3.org/2000/svg" xmlns="http://www.w3.org/2000/svg" xmlns:sodipodi="http://sodipodi.sourceforge.net/DTD/sodipodi-0.dtd" xmlns:inkscape="http://www.inkscape.org/namespaces/inkscape" viewBox="0 0 26.458333 26.458334" version="1.1" x="0px" y="0px"><g transform="translate(0,-270.54165)"><circle style="opacity:0.95899999;vector-effect:none;fill:none;fill-opacity:1;fill-rule:evenodd;stroke:#000000;stroke-width:1;stroke-linecap:butt;stroke-linejoin:miter;stroke-miterlimit:4;stroke-dasharray:none;stroke-dashoffset:0;stroke-opacity:1;paint-order:normal" cx="9.0293274" cy="281.67914" r="3.3072915"></circle><path style="" d="m 8.367869,278.10727 0.2645833,-1.05834 h 0.79375 l 0.2645834,1.05834 H 8.367869" fill="#000000" fill-opacity="1" stroke="#000000" stroke-width="0.26458332px" stroke-linecap="round" stroke-linejoin="round" stroke-opacity="1"></path><path style="" d="m 8.367869,285.25101 0.2645833,1.05834 h 0.7937502 l 0.264583,-1.05834 H 8.367869" fill="#000000" fill-opacity="1" stroke="#000000" stroke-width="0.26458332px" stroke-linecap="round" stroke-linejoin="round" stroke-opacity="1"></path><path style="" d="m 12.601196,282.3406 1.05834,-0.26459 v -0.79374 l -1.05834,-0.26459 v 1.32292" fill="#000000" fill-opacity="1" stroke="#000000" stroke-width="0.26458332px" stroke-linecap="round" stroke-linejoin="round" stroke-opacity="1"></path><path style="" d="M 5.457459,282.34059 4.399119,282.076 v -0.79374 l 1.05834,-0.26459 v 1.32292" fill="#000000" fill-opacity="1" stroke="#000000" stroke-width="0.26458332px" stroke-linecap="round" stroke-linejoin="round" stroke-opacity="1"></path><path style="" d="m 5.8449257,279.83645 -0.5612708,-0.93545 0.561266,-0.56126 0.9354481,0.56127 -0.9354433,0.93544" fill="#000000" fill-opacity="1" stroke="#000000" stroke-width="0.26458332px" stroke-linecap="round" stroke-linejoin="round" stroke-opacity="1"></path><path style="" d="m 6.2512071,284.01889 -0.5612708,0.93545 0.561266,0.56126 0.9354482,-0.56127 -0.9354434,-0.93544" fill="#000000" fill-opacity="1" stroke="#000000" stroke-width="0.26458332px" stroke-linecap="round" stroke-linejoin="round" stroke-opacity="1"></path><path style="" d="m 12.072031,283.7543 0.561271,0.93545 -0.561266,0.56126 -0.935449,-0.56127 0.935444,-0.93544" fill="#000000" fill-opacity="1" stroke="#000000" stroke-width="0.26458332px" stroke-linecap="round" stroke-linejoin="round" stroke-opacity="1"></path><path style="" d="m 12.039931,279.57188 0.561271,-0.93545 -0.561266,-0.56126 -0.935449,0.56127 0.935444,0.93544" fill="#000000" fill-opacity="1" stroke="#000000" stroke-width="0.26458332px" stroke-linecap="round" stroke-linejoin="round" stroke-opacity="1"></path><circle style="opacity:0.95899999;vector-effect:none;fill:none;fill-opacity:1;fill-rule:evenodd;stroke:#000000;stroke-width:1;stroke-linecap:butt;stroke-linejoin:miter;stroke-miterlimit:4;stroke-dasharray:none;stroke-dashoffset:0;stroke-opacity:1;paint-order:normal" cx="-18.003605" cy="285.84903" r="3.3072917" transform="rotate(-7)"></circle><path style="" d="m 15.874997,282.44784 0.133634,-1.0827 0.787833,-0.0967 0.39159,1.0182 -1.313054,0.16126" fill="#000000" fill-opacity="1" stroke="#000000" stroke-width="0.26458332px" stroke-linecap="round" stroke-linejoin="round" stroke-opacity="1"></path><path style="" d="m 16.745601,289.53833 0.391591,1.0182 0.787833,-0.0967 0.133633,-1.0827 -1.313055,0.16126" fill="#000000" fill-opacity="1" stroke="#000000" stroke-width="0.26458332px" stroke-linecap="round" stroke-linejoin="round" stroke-opacity="1"></path><path style="" d="m 20.592684,286.1337 1.018207,-0.39159 -0.09673,-0.78783 -1.082698,-0.13364 0.161224,1.31306" fill="#000000" fill-opacity="1" stroke="#000000" stroke-width="0.26458332px" stroke-linecap="round" stroke-linejoin="round" stroke-opacity="1"></path><path style="" d="m 13.502193,287.00429 -1.082696,-0.13364 -0.09673,-0.78782 1.018206,-0.3916 0.161224,1.31306" fill="#000000" fill-opacity="1" stroke="#000000" stroke-width="0.26458332px" stroke-linecap="round" stroke-linejoin="round" stroke-opacity="1"></path><path style="" d="m 13.581595,284.4716 -0.671091,-0.86008 0.488682,-0.62548 0.996878,0.44309 -0.814469,1.04247" fill="#000000" fill-opacity="1" stroke="#000000" stroke-width="0.26458332px" stroke-linecap="round" stroke-linejoin="round" stroke-opacity="1"></path><path style="" d="m 14.494558,288.57335 -0.443083,0.99688 0.625483,0.48867 0.860073,-0.67109 -1.042473,-0.81446" fill="#000000" fill-opacity="1" stroke="#000000" stroke-width="0.26458332px" stroke-linecap="round" stroke-linejoin="round" stroke-opacity="1"></path><path style="" d="m 20.23975,287.60135 0.671089,0.86008 -0.48868,0.62548 -0.996879,-0.44309 0.81447,-1.04247" fill="#000000" fill-opacity="1" stroke="#000000" stroke-width="0.26458332px" stroke-linecap="round" stroke-linejoin="round" stroke-opacity="1"></path><path style="" d="m 19.698181,283.45402 0.443084,-0.99688 -0.625483,-0.48867 -0.860075,0.67108 1.042474,0.81447" fill="#000000" fill-opacity="1" stroke="#000000" stroke-width="0.26458332px" stroke-linecap="round" stroke-linejoin="round" stroke-opacity="1"></path></g></svg>